<svg xmlns="http://www.w3.org/2000/svg" xmlns:xlink="http://www.w3.org/1999/xlink" width="64" height="64" viewBox="0 0 64 64">
  <defs>
    <style>
      .cls-1 {
        clip-path: url(#clip-slope);
      }

      .cls-2, .cls-3, .cls-4 {
        fill: none;
        stroke-linecap: round;
        stroke-miterlimit: 10;
        stroke-width: 4;
      }

      .cls-2, .cls-3 {
        stroke: #000;
      }

      .cls-2, .cls-4 {
        stroke-linejoin: round;
      }

      .cls-4 {
        stroke: #888;
      }

      .cls-5 {
        fill: #fff;
      }
    </style>
    <clipPath id="clip-slope">
      <rect width="64" height="64"/>
    </clipPath>
  </defs>
  <g id="slope" class="cls-1">
    <g id="그룹_11" data-name="그룹 11" transform="translate(17.362 3.577)">
      <g id="DlKYAJ.tif" transform="translate(0 16.663)">
        <path id="패스_18" data-name="패스 18" class="cls-2" d="M3850.927,1319.791l-4.318,9.645c-.518,1.158-1.037,2.318-1.449,3.519a11.562,11.562,0,0,1-.675,1.744c-.362.677-.912,1.455-.546,2.131l.388.149a1.205,1.205,0,0,1,.406,1.051c-.018.391-.132.774-.146,1.165a4.159,4.159,0,0,0,1.1,2.592,3.209,3.209,0,0,0,1.5,1.227,3.55,3.55,0,0,0,2.737-.767l2.16-1.331a1.286,1.286,0,0,1,1.078-.274l.01.2a7.654,7.654,0,0,0,.547-3.433,81.609,81.609,0,0,1,.628-9.172,8.393,8.393,0,0,1,1.666-4.728" transform="translate(-3843.818 -1307.922)"/>
        <path id="패스_19" data-name="패스 19" class="cls-2" d="M3880.387,1252.188l3.518,2.775.2.911a3.5,3.5,0,0,1-1.926-.49,7.825,7.825,0,0,0-2.357-.587c-.182-.016-.423-.089-.408-.271l-.238,5.884a16.048,16.048,0,0,1-.837-3.4,5.383,5.383,0,0,1,.676-3.381,1.485,1.485,0,0,1,1.063-2.231c.053-.409-.112-.847.054-1.224a1.024,1.024,0,0,1,1.088-.5,2.993,2.993,0,0,1,1.16.531,1.849,1.849,0,0,1,3.439-.588c.387.181.791-.274,1.218-.27a1.171,1.171,0,0,1,.641.286l1.945,1.4c.048-.309.233-.713.535-.628a.518.518,0,0,1,.288.323c.666,1.53-.069,3.327.279,4.959a4.881,4.881,0,0,1,.334,2.116,13.144,13.144,0,0,1-.737,1.461,3.58,3.58,0,0,0,.339,2.624,23.919,23.919,0,0,0,1.884,3.56,47.953,47.953,0,0,0,4.73,5.9l3.125,3.5-.164.705a4.725,4.725,0,0,1,1.191,1.983,25.123,25.123,0,0,1,1.558,4.915,8.446,8.446,0,0,1-.526,5.056,3.79,3.79,0,0,1-1.485,1.72,2.132,2.132,0,0,1-2.192,0,4.057,4.057,0,0,1-1.059-1.378,11.042,11.042,0,0,0-2.272-2.708l.9.436a43.952,43.952,0,0,1-9.041-16.134c-.592-1.928-1.105-3.994-2.524-5.427-.844-.853-1.981-1.447-2.573-2.491a6.094,6.094,0,0,1-.589-2.025l-.633-3.764" transform="translate(-3872.549 -1248.665)"/>
        <path id="패스_20" data-name="패스 20" class="cls-2" d="M3897.961,1259.2a17.218,17.218,0,0,0,2.515,1.659,4.747,4.747,0,0,1,2.032,2.159" transform="translate(-3888.926 -1257.443)"/>
        <path id="패스_21" data-name="패스 21" class="cls-3" d="M3918.717,1251.269a7.955,7.955,0,0,1,1.874,2.923" transform="translate(-3906.218 -1250.835)"/>
        <path id="패스_22" data-name="패스 22" class="cls-3" d="M3943.19,1263.133a4.975,4.975,0,0,1,.73,2.2" transform="translate(-3926.607 -1260.719)"/>
        <path id="패스_23" data-name="패스 23" class="cls-2" d="M3931.221,1270.561a1.624,1.624,0,0,1-1.655-.358,9.429,9.429,0,0,0-1.386-1.122" transform="translate(-3914.102 -1265.674)"/>
        <path id="패스_24" data-name="패스 24" class="cls-3" d="M3923.94,1272.97a5.225,5.225,0,0,1-.819,1.914" transform="translate(-3909.887 -1268.914)"/>
        <path id="패스_25" data-name="패스 25" class="cls-3" d="M3909.77,1285.043a5.1,5.1,0,0,0,2.03-.837" transform="translate(-3898.764 -1278.275)"/>
      </g>
      <path id="패스_26" data-name="패스 26" class="cls-4" d="M3907.9,1151.113l-1.825-2.3-.3.068a6.185,6.185,0,0,0-.98,2.36L3906,1149.2q.138,6.392-.172,12.785l-1.254-.575,1.047.906a.557.557,0,0,0,.3.166c.171.012.31-.13.422-.26l1.188-1.388" transform="translate(-3894.437 -1148.812)"/>
    </g>
  </g>
</svg>
