<svg xmlns="http://www.w3.org/2000/svg" xmlns:xlink="http://www.w3.org/1999/xlink" width="64" height="64" viewBox="0 0 64 64">
  <defs>
    <style>
      .cls-1 {
        clip-path: url(#clip-wing);
      }

      .cls-2, .cls-3 {
        fill: none;
        stroke-linecap: round;
        stroke-linejoin: round;
        stroke-miterlimit: 10;
      }

      .cls-2 {
        stroke: #000;
      }

      .cls-3 {
        stroke: #888;
        opacity: 0.48;
      }

      .cls-4 {
        fill: #fff;
      }
    </style>
    <clipPath id="clip-wing">
      <rect width="64" height="64"/>
    </clipPath>
  </defs>
  <g id="wing" class="cls-1">
    <rect class="cls-4" width="64" height="64"/>
    <g id="그룹_12" data-name="그룹 12" transform="translate(-3882.956 -1665.162)">
      <g id="_2DXTdZ.tif" data-name="2DXTdZ.tif" transform="translate(3888.181 1678.454)">
        <path id="패스_29" data-name="패스 29" class="cls-2" d="M3941.309,1731.415a36.524,36.524,0,0,1,1.046-7.837c1.517-5.325,5.334-9.643,7.928-14.535a33.923,33.923,0,0,0,2.642-6.55,8.308,8.308,0,0,0,.364-4.187c-.167-.695-.743-1.472-1.427-1.267l-.054.029q-6.357.617-12.74.891a10.818,10.818,0,0,1-4.891-.561l-.071,0a7.415,7.415,0,0,1,.473,3.927l.524.2a59.836,59.836,0,0,0,9.667,1.1,3.6,3.6,0,0,0,1.321-.128l-.068.14a55.929,55.929,0,0,0-5.943,7.451,8.271,8.271,0,0,1-1.062,1.477,6.531,6.531,0,0,1-1.4,1,34.522,34.522,0,0,1-3.957,1.965l-10.891-.431a18.6,18.6,0,0,1-7.113-3.441,47.048,47.048,0,0,1-5.819-5.422,1.9,1.9,0,0,1-.713-1.443l-.343-.037c1.6.433,3.282-.078,4.908-.406a22.086,22.086,0,0,1,7.191-.25l.15,0a5.525,5.525,0,0,1-.078-3.173l.131-.512a48.456,48.456,0,0,0-18.284-1.059l-.36.269c-.838.592-.807,1.83-.63,2.841a30.636,30.636,0,0,0,5.759,12.942c2.395,3.2,5.4,6.111,6.611,9.92a17.082,17.082,0,0,1,.668,3.518,30.317,30.317,0,0,1,.13,3.928" transform="translate(-3901.71 -1693.181)"/>
        <path id="패스_30" data-name="패스 30" class="cls-2" d="M3996.463,1678.863a7.893,7.893,0,0,0-6.858,6.981,11.371,11.371,0,0,0,.223,3.023,12.884,12.884,0,0,0,2.4,5.73,7.065,7.065,0,0,0,5.379,2.8,8.657,8.657,0,0,0,2.63-.5,6.117,6.117,0,0,0,1.907-.931,6.246,6.246,0,0,0,1.833-3,20.154,20.154,0,0,0,1-8.16,6.507,6.507,0,0,0-.992-3.295c-1.114-1.549-3.158-2.045-5.026-2.432l-3-.622" transform="translate(-3971.461 -1678.454)"/>
      </g>
      <path id="패스_31" data-name="패스 31" class="cls-3" d="M4103.728,1715.386l1.4-1.618a.3.3,0,0,1,.186-.125.336.336,0,0,1,.2.064l1.308.766-1.332-.3a8.463,8.463,0,0,1-.141,6.515,16.144,16.144,0,0,1-4.14,5.565,33.783,33.783,0,0,1-11.079,6.551l1.762.839a9.393,9.393,0,0,0-2.436-.493,11.893,11.893,0,0,0,1.525-2.711" transform="translate(-162.56 -27.932)"/>
      <path id="패스_32" data-name="패스 32" class="cls-3" d="M3901.958,1733.3l.969-.929a.232.232,0,0,0,.092-.148.224.224,0,0,0-.084-.146,5.107,5.107,0,0,0-.941-.75l.624.941a34.009,34.009,0,0,1-7.559-2.293,16.305,16.305,0,0,1-7.479-7.438,17.3,17.3,0,0,1-1.508-10l1.018.314a2,2,0,0,1-.984-.857l-1.439,1.408" transform="translate(0 -26.63)"/>
    </g>
  </g>
</svg>
