<svg xmlns="http://www.w3.org/2000/svg" xmlns:xlink="http://www.w3.org/1999/xlink" width="64" height="64" viewBox="0 0 64 64">
  <defs>
    <style>
      .cls-1 {
        clip-path: url(#clip-ring);
      }

      .cls-2, .cls-3 {
        fill: none;
        stroke-linecap: round;
        stroke-miterlimit: 10;
      }

      .cls-2 {
        stroke: #000;
      }

      .cls-3 {
        stroke: #888;
      }

      .cls-4 {
        fill: #fff;
      }
    </style>
    <clipPath id="clip-ring">
      <rect width="64" height="64"/>
    </clipPath>
  </defs>
  <g id="ring" class="cls-1">
    <rect class="cls-4" width="64" height="64"/>
    <g id="그룹_10" data-name="그룹 10" transform="translate(-4212.849 -788.557)">
      <path id="패스_3" data-name="패스 3" class="cls-2" d="M4244.509,1008.747c-3.5,1.747-7.491,2.851-11.326,2.087s-7.392-3.754-7.908-7.631l.277-.23c.155-.008.2-.217.19-.373a5.179,5.179,0,0,0,3.718.547c1.264-.221,2.466-.7,3.709-1.019" transform="translate(-5.531 -166.428)"/>
      <path id="패스_4" data-name="패스 4" class="cls-2" d="M4327.363,1036.394c10.016,2.488,20.6,2.1,30.693-.063" transform="translate(-88.372 -194.182)"/>
      <path id="패스_5" data-name="패스 5" class="cls-2" d="M4491.32,966.854a39.89,39.89,0,0,0,2.159-16.348" transform="translate(-221.419 -124.538)"/>
      <path id="패스_6" data-name="패스 6" class="cls-2" d="M4421.828,830.028c.318-3.217-1.238-6.574-2.224-9.567q-1.571-4.767-3.241-9.5c-.537-1.523-.823-3.332-1.809-4.654-.958-1.286-2.671-1.452-4.163-1.542l-4.185-.252a4.973,4.973,0,0,1-2.336-.53,1.707,1.707,0,0,1-.8-2.058" transform="translate(-149.71 -3.968)"/>
      <path id="패스_7" data-name="패스 7" class="cls-2" d="M4235.854,990.036a4.9,4.9,0,0,1,2.147-.853,18.721,18.721,0,0,1,10.41.908c1.108.432,2.177.971,3.318,1.306a16.608,16.608,0,0,0,3.646.543,54.942,54.942,0,0,0,17.277-1.675" transform="translate(-14.115 -155.632)"/>
      <path id="패스_8" data-name="패스 8" class="cls-2" d="M4372.611,949.547q2.347-.828,4.74-1.513a7.924,7.924,0,0,1,2.5-.42,9.047,9.047,0,0,1,2.55.643,14.766,14.766,0,0,0,5.609,1.062,6.166,6.166,0,0,0,4.9-2.564,8.079,8.079,0,0,0,.988-2.847c.3-1.551.4-3.353-.673-4.507s-2.886-1.171-4.449-.952" transform="translate(-125.09 -114.664)"/>
      <path id="패스_9" data-name="패스 9" class="cls-2" d="M4274.469,922.7c.953,2.255.478,4.859,1.048,7.24l-1.037.964c2.02,1.046,4.434.9,6.687.588a55.239,55.239,0,0,0,9.848-2.3,15.049,15.049,0,0,1,4.373-1.045c1.673-.034,3.352.567,5,.253,1.5-.285,2.744-1.287,4.153-1.866a7.712,7.712,0,0,1,4.522-.4" transform="translate(-45.45 -101.973)"/>
      <path id="패스_10" data-name="패스 10" class="cls-2" d="M4220.532,893.548a45.189,45.189,0,0,1-1.642-7.979,36.32,36.32,0,0,1-.419-3.919,25.128,25.128,0,0,1,.31-4.561,40.331,40.331,0,0,1,2.132-8.235" transform="translate(0 -58.279)"/>
      <path id="패스_11" data-name="패스 11" class="cls-2" d="M4235.225,824.2a19.668,19.668,0,0,1,.837-5.057,6.626,6.626,0,0,1,3.178-3.872c2.821-1.351,6.334.181,9.242-.969" transform="translate(-13.604 -14.013)"/>
      <path id="패스_12" data-name="패스 12" class="cls-2" d="M4305.373,803.18a5.138,5.138,0,0,0,2.721-2.778" transform="translate(-70.528 -2.733)"/>
      <path id="패스_13" data-name="패스 13" class="cls-2" d="M4451.833,893.52l.93,4.487a6.714,6.714,0,0,1,.178,1.248,5.856,5.856,0,0,1-.489,2.163" transform="translate(-189.377 -78.295)"/>
      <path id="패스_14" data-name="패스 14" class="cls-3" d="M4235.311,807.641a1.906,1.906,0,0,0-1.891.454,8.25,8.25,0,0,0-1.959,2.086" transform="translate(-10.551 -8.512)"/>
      <path id="패스_15" data-name="패스 15" class="cls-3" d="M4227.849,798.011a9.6,9.6,0,0,0-5.159,3.457" transform="translate(-3.433 -0.792)"/>
      <path id="패스_16" data-name="패스 16" class="cls-3" d="M4457.361,808.775a5.7,5.7,0,0,1,3.354,2.562" transform="translate(-193.862 -9.527)"/>
      <path id="패스_17" data-name="패스 17" class="cls-3" d="M4459.116,797.035a7.12,7.12,0,0,1,4.778,3.675" transform="translate(-195.286 0)"/>
    </g>
  </g>
</svg>
